<svg width="128" height="128" viewBox="0 0 128 128" fill="none" xmlns="http://www.w3.org/2000/svg">
  <rect width="128" height="128" rx="30" fill="#F7D9A8"/>
  <path d="M31 54L24 25L49 42L31 54Z" fill="#D78A45"/>
  <path d="M97 54L104 25L79 42L97 54Z" fill="#D78A45"/>
  <circle cx="64" cy="66" r="43" fill="#F6B55B"/>
  <circle cx="48" cy="62" r="7" fill="#2C2C2C"/>
  <circle cx="80" cy="62" r="7" fill="#2C2C2C"/>
  <path d="M64 71L58 77H70L64 71Z" fill="#D45C5C"/>
  <path d="M50 84C57 91 71 91 78 84" stroke="#2C2C2C" stroke-width="5" stroke-linecap="round"/>
  <path d="M32 73H16M34 84H18M96 73H112M94 84H110" stroke="#8D5D35" stroke-width="4" stroke-linecap="round"/>
  <circle cx="46" cy="80" r="4" fill="#FFD8B0"/>
  <circle cx="82" cy="80" r="4" fill="#FFD8B0"/>
  <rect x="44" y="97" width="40" height="12" rx="6" fill="#5B7C99"/>
  <path d="M54 103H74" stroke="white" stroke-width="4" stroke-linecap="round"/>
</svg>
